<svg xmlns="http://www.w3.org/2000/svg">

    <!-- car service -->
    <symbol id="carService" xmlns="http://www.w3.org/2000/svg" version="1.1" viewBox="-5.0 -10.0 110.0 135.0" >
    <path d="m88.852 58.602-0.43359 2.2539c-0.035157 0.17578-0.15234 0.31641-0.28125 0.35156l-5.3633 1.5547-1.9062-2.5938-0.76953-1.8477c0.32422-0.55859 0.91016-0.91406 1.5312-0.91016h6.3789c0.6875 0.046875 0.92188 0.62109 0.84375 1.1914zm-69.73 1.5664 0.76953-1.8477c-0.34766-0.55859-0.92578-0.91797-1.5312-0.91016h-6.3906c-0.31641 0-0.52734 0.1875-0.62109 0.30469-0.55078 0.53516 0.10156 2.1523 0.22266 3.1562 0.035157 0.16406 0.14063 0.30469 0.26953 0.33984l5.3633 1.5547zm55.977-7.6562c-2.4648-5.1172-8.0273-8.4258-14.176-8.4258h-21.863c-6.4883 0.003906-12.301 3.6719-14.559 9.3008-0.44922 1.043-2.1797 5.2422-2.5938 6.1914h56.172c-0.67969-1.582-2.25-5.4805-2.9805-7.0664zm-57.598 41.719v3.4453c0 1.0039 0.86328 1.8242 1.9414 1.8242h6.9648c1.0742 0 1.9531-0.81641 1.9531-1.8242v-3.0742c-1.918-0.089843-9.125 0.28516-10.859-0.37109zm54.137 0.375v3.0742c0 1.0039 0.86328 1.8242 1.9414 1.8242h6.9648c1.0742 0 1.9531-0.81641 1.9531-1.8242l-0.003906-3.4492c-1.7734 0.65625-8.8945 0.28125-10.855 0.375zm2.7812-3.0859c0-1.9297-1.6602-3.5039-3.6914-3.5039l-41.473-0.003906c-2.3906-0.011719-3.957 2.0547-3.6797 4.2539h48.844zm8.9062-24.086c2 2.6992 3.0508 5.8906 3.0508 9.2188v9.4531c0.070312 3.3555-3.0625 6.2383-6.4375 6.1602h-3.1797c0.33594-3.4844-2.3906-6.6055-6.0312-6.5898h-41.473c-3.6445-0.015625-6.3477 3.1094-6.0195 6.5898h-3.1797c-3.3867 0.085937-6.5039-2.7969-6.4375-6.1602v-9.4531c0-3.332 1.0508-6.5195 3.0508-9.2188 0.03125-0.003906 4.0312-5.5352 4.0664-5.5156h58.508zm-62.543 1.0195c-1.0586-0.003906-2.0508 0.35938-2.8281 0.96875-1.8516 1.3203-2.1094 4.2148-1.4844 6.1445 1.582 5.457 10.504 7.2422 16.559 5.6328l0.046875-0.89844c0.63672-6.4648-5.1211-12.027-12.293-11.848zm42.152 3.1992c-2.1953 0.054687-12.402 0.59375-14.41 0.45703l-11.477-0.45703c-2.3398-0.1875-4.1016 2.4297-3.0156 4.4883l2.0781 4.2656c0.51562 1.0273 1.543 1.707 2.7109 1.7773l8.8477 0.50391c3.1484 0.27344 10.25-0.39062 13.496-0.50391 1.1562-0.070313 2.1953-0.74609 2.6992-1.7773l2.0898-4.2656c1.082-2.0625-0.70312-4.6719-3.0195-4.4883zm5.793 1.7891c-1.9258 2.9141-1.9453 5.375-1.7656 7.7578 6.0586 1.6133 14.957-0.18359 16.559-5.6328 2.4336-10.516-11.367-7.6992-14.793-2.125zm-47.969-2.6523c-2.1523-0.054687-2.5898 2.5586-2.0703 4.0547 0.94531 2.8984 5.7734 5.293 12.059 4.3945 0.039062-4.9102-4.6797-8.6016-9.9883-8.4492zm58.453 0c-3.6328 0-6.8359 1.4844-8.5547 3.9727-1.0508 1.5312-1.3789 3.1562-1.4258 4.4766 6.2969 0.89844 11.113-1.4961 12.07-4.3945 0.52734-1.4883 0.058594-4.125-2.0898-4.0547zm-16.184 3.2031-11.477 0.44531c-2.1992 0.14844-12.203-0.39453-14.594-0.44531-0.56641 0.007812-1.1055 0.44922-0.82812 1.1211l2.0898 4.2656c0.12891 0.26953 0.42188 0.44531 0.73438 0.46875l8.8477 0.51562c3.0117 0.25391 10.121-0.39453 13.227-0.51562 0.32812-0.023437 0.60938-0.19922 0.73438-0.46875l2.0898-4.2656c0.29297-0.67969-0.27344-1.1016-0.82422-1.1211zm0.34766-63.816h2.9336l0.42188 3.6914c1.2344 0.28125 2.4805 0.78125 3.6211 1.4609l2.875-2.3359 2.0898 2.0781-2.3125 2.8984c0.68359 1.1133 1.1875 2.3594 1.4961 3.5977l3.6914 0.39844 0.023438 2.9453-3.6914 0.41016c-0.27344 0.98438-0.58984 2.0391-1.0977 2.9102l-0.39844 0.69141 2.3477 2.8984-2.0781 2.0898-2.9219-2.3359c-1.0586 0.69922-2.2969 1.2148-3.5742 1.5078l-0.38672 3.7031-2.9453 0.011719-0.42188-3.7031c-1.2109-0.28125-2.5117-0.78516-3.6094-1.4609l-2.8867 2.3242-2.0781-2.0703 2.3125-2.8984c-0.66406-1.1094-1.1914-2.3477-1.4961-3.5977l-3.6914-0.39844-0.011718-2.9453 3.6797-0.41016c0.29297-1.2656 0.8125-2.5039 1.4844-3.5977l-2.3359-2.8984 0.24609-0.24609h0.011719c0.28906-0.29297 1.5469-1.582 1.8242-1.8359 0.60156 0.48047 2.2734 1.8164 2.8984 2.3125 1.0977-0.67578 2.3398-1.1914 3.5859-1.5078 0.09375-0.89844 0.29297-2.7969 0.39453-3.6875zm-2.875 18.531h0.058594c2.6992 2.2617 6.7539 2.0547 9.2305-0.49219l0.003907-0.007813c2.7695-2.8242 2.4727-7.6602-0.74609-10.109-7.1641-5.2031-15.078 4.7227-8.5469 10.609zm-23.008-4.9648-3.5977 3.3438 2.6758 3.5742 4.2305-2.4883c1.1992 0.98438 2.5664 1.8008 4.0195 2.3945l-0.17578 4.9062 4.4062 0.64453 1.2383-4.7578c0.58984-0.082031 1.3125-0.15625 1.8945-0.29297 0.007812-0.14844 1.6914-2.1641 1.8125-2.3359-0.1875-0.38672-0.35156-0.78125-0.49219-1.1797-0.80078-0.15625-3.0664-0.066406-3.6445-0.75781-5.1406 0.41406-9.707-4.4961-8.8828-9.6055 0.66797-6.3828 8.7422-9.6484 13.66-5.5742l0.49219-0.50391c0.67188-0.69531 1.7305-0.66797 2.4883-0.14062 0.41406 0.32422 1.5938 1.2734 2.0234 1.6133 0.37891-0.1875 0.79297-0.33203 1.1797-0.50391 0.054688-0.48047 0.23047-2.0664 0.28125-2.5703 0.13281-1.2969 1.3594-1.8008 2.5352-1.6719l-1.4023-1.8828-4.2305 2.4883c-1.2188-0.99609-2.5781-1.8281-4.0312-2.3945l0.1875-4.9062-4.4219-0.64062-1.2266 4.7461c-1.5586 0.14844-3.1055 0.54297-4.5469 1.1562l-3.3438-3.5977-3.5742 2.6719 2.4883 4.2305c-0.97266 1.1914-1.7969 2.5547-2.4062 4.0195l-4.8945-0.17578-0.64453 4.418 4.7578 1.2266c0.13281 1.5625 0.54688 3.1094 1.1445 4.5469z"/>
    </symbol>

    <!-- car quality -->
    <symbol id="carQuality" xmlns="http://www.w3.org/2000/svg" version="1.1" viewBox="-5.0 -10.0 110.0 135.0">
    <g>
    <path d="m21.953 89.855c0.3125 3.0625 2.9141 5.4688 6.0547 5.4688 3.1406 0 5.7422-2.4062 6.0547-5.4688v-0.058594c0.015625-0.17969 0.03125-0.35938 0.03125-0.55469 0-3.3633-2.7188-6.0859-6.0859-6.0859-3.3633 0-6.0859 2.7188-6.0859 6.0859 0 0.19531 0.015625 0.375 0.03125 0.55469z"/>
    <path d="m64.648 89.855c0.3125 3.0625 2.9141 5.4688 6.0547 5.4688s5.7422-2.4062 6.0547-5.4688v-0.058594c0.015626-0.17969 0.03125-0.35938 0.03125-0.55469 0-3.3633-2.7188-6.0859-6.0859-6.0859-3.3633 0-6.0859 2.7188-6.0859 6.0859 0 0.19531 0.015624 0.375 0.03125 0.55469z"/>
    <path d="m79.625 90.145c-0.023438 0.28906-0.0625 0.5625-0.125 0.83984h2.7422c2.9453 0 5.3359-2.3906 5.3359-5.3516v-8.5078c0-1.6523-1.1172-3.1328-2.7188-3.582l-14.82-4.1484-8.0078-6.9766c-3.6836-3.2188-8.3945-4.9844-13.254-4.9844h-11.789c-2.2812 0-4.5352 0.76562-6.3633 2.1562l-8.1797 6.2383-8.9844 1.5781c-0.60156 0.10156-1.0391 0.625-1.0391 1.2266v15.66c0 3.6953 3.0078 6.6914 6.6914 6.6914h0.10156c-0.0625-0.27344-0.10156-0.55078-0.125-0.83984l-0.011719-0.125v-0.085937c-0.023437-0.22656-0.039063-0.45312-0.039063-0.6875 0-0.26172 0.011719-0.51562 0.039063-0.76562 0.39062-4.5977 4.2461-8.207 8.9336-8.207s8.543 3.6094 8.9336 8.207c0.023438 0.25 0.039063 0.5 0.039063 0.76562 0 0.23828-0.011719 0.46484-0.039063 0.6875l-0.011718 0.21094c-0.023438 0.28906-0.0625 0.5625-0.125 0.83984h25.105c-0.0625-0.27344-0.10156-0.55078-0.125-0.83984l-0.011718-0.125v-0.085937c-0.023438-0.22656-0.039063-0.45312-0.039063-0.6875 0-0.26172 0.011719-0.51562 0.039063-0.76562 0.39062-4.5977 4.2461-8.207 8.9336-8.207s8.543 3.6094 8.9336 8.207c0.023438 0.25 0.039063 0.5 0.039063 0.76562 0 0.23828-0.011719 0.46484-0.039063 0.6875l-0.011719 0.21094zm-36.105-19.469c-5.4258 0-10.25-0.011719-12.062-0.023437-0.28906 0-0.55078-0.074219-0.78906-0.23828l-5.5-3.4961 6.9922-5.3359c1.3789-1.0508 3.1055-1.6406 4.8359-1.6406h5.8633l0.67188 10.738h-0.007812zm4.8867 7.1914h-1.8789c-0.6875 0-1.2539-0.55078-1.2539-1.2539 0-0.6875 0.5625-1.2539 1.2539-1.2539h1.8789c0.6875 0 1.2539 0.5625 1.2539 1.2539 0 0.70312-0.5625 1.2539-1.2539 1.2539zm16.914-7.4531c-0.46484 0.21094-0.95312 0.3125-1.4531 0.3125h-0.011719c-2.6953-0.011718-10.461-0.023437-17.816-0.039062l-0.67187-10.75h3.4141c4.2578 0 8.3828 1.5547 11.602 4.3711l6.2773 5.4766c-0.46484 0.22656-0.92578 0.4375-1.3398 0.625z"/>
    <path d="m27.969 30.75c-1.1406 2.2812-0.23438 5.0781 2.0312 6.2656l2.9688 1.5312c0.4375 0.23438 0.75 0.65625 0.82812 1.1406l0.54688 3.2969c0.42188 2.5156 2.8125 4.2656 5.3281 3.875l3.3125-0.5c0.48438-0.0625 0.98438 0.09375 1.3438 0.4375l2.375 2.3594c0.90625 0.89062 2.1094 1.3281 3.2969 1.3281s2.3906-0.4375 3.2969-1.3281l2.3906-2.3594c0.34375-0.34375 0.84375-0.5 1.3281-0.4375l3.3125 0.5c2.5156 0.39062 4.9062-1.3594 5.3281-3.875l0.54688-3.2969c0.078125-0.48438 0.39062-0.90625 0.82812-1.1406l2.9688-1.5312c2.2656-1.1875 3.1719-3.9844 2.0312-6.2656l-1.4844-3c-0.21875-0.4375-0.21875-0.96875 0-1.4062l1.4844-3c1.1406-2.2812 0.23438-5.0781-2.0312-6.2656l-2.9688-1.5312c-0.4375-0.23438-0.75-0.65625-0.82812-1.1406l-0.54688-3.2969c-0.42188-2.5156-2.7969-4.25-5.3281-3.875l-3.3125 0.5c-0.48438 0.0625-0.98438-0.09375-1.3281-0.4375l-2.3906-2.3438c-1.8125-1.7969-4.7812-1.7969-6.5938 0l-2.375 2.3438c-0.35938 0.34375-0.85938 0.5-1.3438 0.4375l-3.3125-0.5c-2.5156-0.39062-4.9062 1.3594-5.3281 3.875l-0.54688 3.2969c-0.078125 0.48438-0.39062 0.90625-0.82812 1.1406l-2.9688 1.5312c-2.2656 1.1875-3.1719 3.9844-2.0312 6.2656l1.4844 3c0.21875 0.4375 0.21875 0.96875 0 1.4062zm7.3906-3.7031c0-8.0781 6.5625-14.641 14.641-14.641s14.656 6.5625 14.656 14.641-6.5781 14.656-14.656 14.656-14.641-6.5781-14.641-14.656z"/>
    <path d="m50 38.578c6.3594 0 11.531-5.1719 11.531-11.531s-5.1719-11.516-11.531-11.516-11.516 5.1562-11.516 11.516 5.1562 11.531 11.516 11.531zm-6.6875-13.469c0.60938-0.60938 1.5938-0.60938 2.2031 0l3.1875 3.1719 5.7812-5.7812c0.60938-0.60938 1.5938-0.60938 2.2031 0s0.60938 1.5938 0 2.2031l-6.8906 6.8906c-0.28125 0.29688-0.6875 0.45312-1.0938 0.45312-0.42188 0-0.8125-0.15625-1.1094-0.45312l-4.2812-4.2812c-0.60938-0.60938-0.60938-1.5938 0-2.2031z"/>
    </g>
    </symbol>

    <!-- car insurance -->
    <symbol id="carInsurance" xmlns="http://www.w3.org/2000/svg" viewBox="0 0 64 80" x="0px" y="0px"><title>_</title><g data-name="Car Insurance"><path d="M54.85673,35.79614l-1.71379,1.71379a7.16791,7.16791,0,0,0-2.20194-1.365l-.75725-1.4248,1.80343-1.80343a2.03258,2.03258,0,0,1,2.86955,2.87946Z"/><path d="M13.81625,34.72011l-.75725,1.4248a7.16791,7.16791,0,0,0-2.20194,1.365L9.14327,35.79614a2.03258,2.03258,0,1,1,2.86955-2.87946Z"/><path d="M48.42016,35.64672a.56762.56762,0,0,0-.12954-.01H15.70938a.56762.56762,0,0,0-.12954.01l4.68289-8.778A2.2541,2.2541,0,0,1,22.126,25.85239h.34871a27.50743,27.50743,0,0,0,8.29977,8.08055,2.27267,2.27267,0,0,0,2.451,0,27.50743,27.50743,0,0,0,8.29977-8.08055H41.874a2.2541,2.2541,0,0,1,1.86327,1.01632Z"/><path d="M14.83257,56.20184h5.32058v1.39488A2.40467,2.40467,0,0,1,17.742,59.998H15.51009a2.40467,2.40467,0,0,1-2.4112-2.40129v-1.644A5.88431,5.88431,0,0,0,14.83257,56.20184Z"/><path d="M50.90111,55.95275v1.644a2.40467,2.40467,0,0,1-2.4112,2.40129H46.25805a2.40467,2.40467,0,0,1-2.4112-2.40129V56.20184h5.32058A5.88431,5.88431,0,0,0,50.90111,55.95275Z"/><path d="M43.08656,47.39354v.45926H53.57143V44.56206H45.918A2.83447,2.83447,0,0,0,43.08656,47.39354Z"/><path d="M20.91344,47.8528v-.45926A2.83447,2.83447,0,0,0,18.082,44.56206H10.42857V47.8528Z"/><polygon points="26.832 47.788 37.168 47.743 37.168 45.287 26.787 45.333 26.832 47.788"/><path d="M44.00624,9.213a.3388.3388,0,0,0-.28892-.30888A23.94281,23.94281,0,0,1,38.028,7.46932a29.63819,29.63819,0,0,1-5.83872-3.40757.32956.32956,0,0,0-.37862,0A29.63819,29.63819,0,0,1,25.972,7.46932a23.94281,23.94281,0,0,1-5.68929,1.43477.3388.3388,0,0,0-.28892.30888,25.69146,25.69146,0,0,0,2.22188,12.09594,24.9553,24.9553,0,0,0,2.68024,4.54344A25.2855,25.2855,0,0,0,31.83063,32.249a.34233.34233,0,0,0,.33874,0,25.2855,25.2855,0,0,0,6.93475-6.39668,24.9553,24.9553,0,0,0,2.68024-4.54344A25.69146,25.69146,0,0,0,44.00624,9.213Zm-6.2703,5.39-6.14266,7.231a1.26628,1.26628,0,0,1-1.94312.00146L27.314,19.10411A.99618.99618,0,1,1,28.828,17.809L30.61929,19.903,36.218,13.31271a.99609.99609,0,1,1,1.51791,1.29023Z"/><path d="M42.711,49.845a1.61374,1.61374,0,0,1-1.61412-1.61411v-.837a4.8263,4.8263,0,0,1,4.8224-4.82239h7.63222a5.23573,5.23573,0,0,0-1.8134-3.6667A5.404,5.404,0,0,0,49.5162,37.779a4.915,4.915,0,0,0-1.22558-.14948H15.70938a4.915,4.915,0,0,0-1.22558.14948,5.404,5.404,0,0,0-2.22188,1.12584,5.23573,5.23573,0,0,0-1.8134,3.6667h7.63222a4.8263,4.8263,0,0,1,4.8224,4.82239v.837A1.61374,1.61374,0,0,1,21.289,49.845H10.42857a4.39537,4.39537,0,0,0,2.67032,4.01534h.00992a4.33171,4.33171,0,0,0,1.72376.34877H49.16743a4.33171,4.33171,0,0,0,1.72376-.34877h.00992A4.39537,4.39537,0,0,0,53.57143,49.845ZM39.1639,47.79248A1.954,1.954,0,0,1,37.211,49.73541H26.789a1.954,1.954,0,0,1-1.95291-1.94293v-2.5009A1.95607,1.95607,0,0,1,26.789,43.33867H37.211a1.95607,1.95607,0,0,1,1.95291,1.95291Z"/></g></symbol>

    <!-- no booking cost -->
    <symbol id="carBooking" xmlns="http://www.w3.org/2000/svg" version="1.1" viewBox="-5.0 -10.0 110.0 135.0">
    <g>
    <path d="m62.426 81.402h-24.852c-2.5859 0.003906-4.832 1.7773-5.4375 4.293h35.727c-0.60547-2.5156-2.8516-4.2891-5.4375-4.293z"/>
    <path d="m93.613 67.109c-11.594 2.7852-27.168 4.3906-43.613 4.3906-16.516 0-31.984-1.5742-43.617-4.3867l-0.82422 18.582v7.8477c0 0.74219 0.29688 1.457 0.82031 1.9805 0.52734 0.52344 1.2383 0.82031 1.9805 0.82031h8.8281c0.74219 0 1.457-0.29688 1.9805-0.82031 0.52344-0.52734 0.82031-1.2383 0.82031-1.9805v-7.8477h8.6602c0.65234-4.4297 4.4492-7.7109 8.9258-7.7188h24.852c4.4766 0.007813 8.2734 3.2891 8.9258 7.7188h8.6641l-0.003906 7.8477c0 0.74219 0.29688 1.4531 0.82031 1.9805 0.52734 0.52344 1.2383 0.82031 1.9805 0.82031h8.8281c0.74219 0 1.457-0.29688 1.9805-0.82031 0.52734-0.52344 0.82031-1.2383 0.82031-1.9805v-7.8477zm-79.27 14.617c-2.1445 0-4.0781-1.293-4.8984-3.2734-0.82031-1.9805-0.36719-4.2578 1.1484-5.7773 1.5156-1.5156 3.7969-1.9688 5.7773-1.1484 1.9805 0.82422 3.2695 2.7539 3.2695 4.8984 0 2.9258-2.3711 5.2969-5.2969 5.3008zm71.312 0c-2.1406-0.003906-4.0742-1.293-4.8945-3.2734-0.82031-1.9805-0.36328-4.2617 1.1523-5.7773 1.5156-1.5156 3.7969-1.9688 5.7773-1.1445 1.9766 0.82031 3.2695 2.7539 3.2695 4.8945-0.003907 2.9297-2.375 5.3008-5.3047 5.3008z"/>
    <path d="m93.305 50.039h-5.8828l-7.0703-16.125h0.003907c-0.78906-1.8008-2.5664-2.9609-4.5312-2.9609h-5.7891c-0.70703 1.4883-1.5742 2.8906-2.5898 4.1875h8.3789c0.30078 0 0.57422 0.17578 0.69531 0.45312l10.539 24.035h-74.117l10.539-24.035c0.12109-0.27734 0.39453-0.45312 0.69531-0.45312h8.3789c-1.0156-1.2969-1.8828-2.6992-2.5898-4.1875h-5.7891c-1.9648 0-3.7422 1.1602-4.5312 2.9609l-7.0703 16.125h-5.8789c-1.3047 0-2.5312 0.60156-3.3242 1.6367-0.79297 1.0312-1.0625 2.375-0.72656 3.6328l0.11328 0.41797h-0.003906c0.27734 1.0391 0.94531 1.9336 1.8633 2.4961l3.4453 2.1133-1.5273 3.4805h0.77734c11.336 2.7266 26.477 4.2578 42.688 4.2578 16.145 0 31.383-1.5547 42.676-4.2578h0.79297l-1.5273-3.4844 3.4453-2.1133-0.003907 0.003906c0.91797-0.5625 1.5859-1.457 1.8633-2.4961l0.11328-0.41797h-0.003906c0.33594-1.2578 0.066406-2.6016-0.72656-3.6328-0.79297-1.0352-2.0195-1.6367-3.3242-1.6367z"/>
    <path d="m67.863 21.52c0-4.7344-1.8828-9.2773-5.2305-12.629-3.3516-3.3516-7.8906-5.2344-12.629-5.2344-4.7383 0-9.2812 1.8789-12.633 5.2305-3.3477 3.3477-5.2305 7.8906-5.2344 12.629 0 4.7383 1.8828 9.2812 5.2305 12.629 3.3516 3.3516 7.8906 5.2344 12.629 5.2344 4.7344-0.003906 9.2773-1.8867 12.625-5.2344 3.3477-3.3477 5.2344-7.8867 5.2422-12.625zm-31.965 0c0-5.7031 3.4336-10.848 8.7031-13.031 5.2695-2.1836 11.336-0.97656 15.371 3.0586 4.0312 4.0312 5.2383 10.098 3.0547 15.367-2.1836 5.2734-7.3281 8.707-13.031 8.707-7.7812-0.011719-14.086-6.3164-14.098-14.102z"/>
    <path d="m50.402 19.793c-1.9297-0.23047-3.5859-0.62109-3.5859-2.0234 0-1.1953 1.0781-2.1367 3.332-2.1367v0.003907c1.4883-0.054688 2.9062 0.61328 3.8164 1.793l2.4141-1.2422h-0.003906c-0.99609-1.8555-2.9023-3.0469-5.0078-3.1211v-2.9219h-2.6836v2.9609c-2.5156 0.37891-4.8516 1.7734-4.8516 4.5742 0 3.6055 3.0312 4.4805 6.3164 4.8711 2.1367 0.23047 3.7227 0.85156 3.7227 2.3672 0 1.7461-1.793 2.4141-3.6992 2.4141-1.9531 0-3.8125-0.78125-4.5273-2.5508l-2.5273 1.3086c1.0117 2.4922 2.9844 3.5977 5.5664 3.875v2.9258h2.6836v-2.9141c3.043-0.32422 5.5156-1.8945 5.5156-5.0586 0-3.8359-3.125-4.7109-6.4805-5.125z"/>
    </g>
    </symbol>

    <!-- rental schedule -->
    <symbol id="carSchedule" xmlns="http://www.w3.org/2000/svg" data-name="Layer 3" viewBox="0 0 64 80" x="0px" y="0px"><title>SCHEDULE-service-check-car-vehicle</title><rect x="17" y="25" width="4" height="4"/><rect x="37" y="25" width="4" height="4"/><polygon points="17 45 17 47.59 19.59 45 17 45"/><rect x="27" y="25" width="4" height="4"/><rect x="47" y="25" width="4" height="4"/><polygon points="11 39 11 36.41 8.41 39 11 39"/><rect x="7" y="25" width="4" height="4"/><polygon points="7 35 7 37.59 9.59 35 7 35"/><rect x="7" y="45" width="4" height="4"/><rect x="17" y="35" width="4" height="4"/><path d="M55,8H51V9a4,4,0,0,1-8,0V8H39V9a4,4,0,0,1-8,0V8H27V9a4,4,0,0,1-8,0V8H15V9A4,4,0,0,1,7,9V8H3V19H55Z"/><path d="M47,11a2,2,0,0,0,2-2V5a2,2,0,0,0-4,0V9A2,2,0,0,0,47,11Z"/><path d="M53.77,41H44.24a2,2,0,0,0-1.92,1.42l-2,6.59H57q.32,0,.63,0l-2-6.61A2,2,0,0,0,53.77,41Z"/><path d="M60,47a1,1,0,0,0,0-2H58.54l.6,2Z"/><rect x="47" y="35" width="4" height="4"/><path d="M11,11a2,2,0,0,0,2-2V5A2,2,0,0,0,9,5V9A2,2,0,0,0,11,11Z"/><path d="M35,11a2,2,0,0,0,2-2V5a2,2,0,0,0-4,0V9A2,2,0,0,0,35,11Z"/><path d="M23,11a2,2,0,0,0,2-2V5a2,2,0,0,0-4,0V9A2,2,0,0,0,23,11Z"/><rect x="37" y="35" width="4" height="4"/><path d="M37,46a1,1,0,0,0,1,1h.86l.6-2H38A1,1,0,0,0,37,46Z"/><path d="M39,60a1,1,0,0,0,1,1h2a1,1,0,0,0,1-1V59H39Z"/><path d="M38.26,49H38a3,3,0,0,1,0-6h2.06l.34-1.15a4.67,4.67,0,0,1,.38-.85H36a1,1,0,0,1-1-1V34a1,1,0,0,1,1-1h6a1,1,0,0,1,1,1v5.2a3.93,3.93,0,0,1,1.24-.2H45V34a1,1,0,0,1,1-1h6a1,1,0,0,1,1,1v5h.77a4.16,4.16,0,0,1,1.23.19V21H3V55H35v-.54a5.4,5.4,0,0,1,3.09-4.91ZM45,24a1,1,0,0,1,1-1h6a1,1,0,0,1,1,1v6a1,1,0,0,1-1,1H46a1,1,0,0,1-1-1ZM35,24a1,1,0,0,1,1-1h6a1,1,0,0,1,1,1v6a1,1,0,0,1-1,1H36a1,1,0,0,1-1-1ZM25,24a1,1,0,0,1,1-1h6a1,1,0,0,1,1,1v6a1,1,0,0,1-1,1H26a1,1,0,0,1-1-1ZM15,24a1,1,0,0,1,1-1h6a1,1,0,0,1,1,1v6a1,1,0,0,1-1,1H16a1,1,0,0,1-1-1Zm0,10a1,1,0,0,1,1-1h6a1,1,0,0,1,1,1v6a1,1,0,0,1-1,1H16a1,1,0,0,1-1-1ZM5,24a1,1,0,0,1,1-1h6a1,1,0,0,1,1,1v6a1,1,0,0,1-1,1H6a1,1,0,0,1-1-1Zm8,26a1,1,0,0,1-1,1H6a1,1,0,0,1-1-1V44a1,1,0,0,1,1-1h6a1,1,0,0,1,1,1Zm0-15.59V40a1,1,0,0,1-1,1H6a1,1,0,0,1-1-1V34a1,1,0,0,1,1-1h5.59l1.7-1.71,1.42,1.42Zm10,10V50a1,1,0,0,1-1,1H16a1,1,0,0,1-1-1V44a1,1,0,0,1,1-1h5.59l1.7-1.71,1.42,1.42ZM33,50a1,1,0,0,1-1,1H26a1,1,0,0,1-1-1V44a1,1,0,0,1,1-1h6a1,1,0,0,1,1,1Zm0-15.59V40a1,1,0,0,1-1,1H26a1,1,0,0,1-1-1V34a1,1,0,0,1,1-1h5.59l1.7-1.71,1.42,1.42Z"/><circle cx="56" cy="54" r="1"/><circle cx="42" cy="54" r="1"/><path d="M53,54a3,3,0,0,1,3-3H42a3,3,0,0,1,0,6H56A3,3,0,0,1,53,54Z"/><path d="M39,54a3,3,0,0,1,3-3H40.46a3.45,3.45,0,0,0-2.79,1.42,3.39,3.39,0,0,0-.67,2V57h5A3,3,0,0,1,39,54Z"/><path d="M55,60a1,1,0,0,0,1,1h2a1,1,0,0,0,1-1V59H55Z"/><polygon points="31 39 31 36.41 28.41 39 31 39"/><path d="M59.93,52.25A4,4,0,0,0,57,51H56a3,3,0,0,1,0,6h5V55A4,4,0,0,0,59.93,52.25Z"/><polygon points="21 49 21 46.41 18.41 49 21 49"/><polygon points="27 35 27 37.59 29.59 35 27 35"/><rect x="27" y="45" width="4" height="4"/></symbol>
</svg>

